<svg xmlns="http://www.w3.org/2000/svg" version="1.1" viewBox="168.81 168.81 405.23 414.38">
 <path d="m331.6 494.4c-24.508 0-44.398 19.887-44.398 44.395 0 24.508 19.891 44.398 44.398 44.398 24.508 0 44.398-19.891 44.398-44.398 0-24.508-19.891-44.395-44.398-44.395zm148 0c-24.508 0-44.398 19.887-44.398 44.395 0 24.508 19.891 44.398 44.398 44.398 24.508 0 44.398-19.891 44.398-44.398 0-24.508-19.891-44.395-44.398-44.395zm-265.75-262.1 44.234 162.25 9.1641 36.625c4.9414 19.758 22.699 33.625 43.078 33.625h213.68c8.168 0 14.797-6.6289 14.797-14.797 0-8.1719-6.6289-14.801-14.797-14.801h-213.68c-6.793 0-12.711-4.6172-14.367-11.203l-4.5898-18.395h210.02c20.023 0 37.574-13.395 42.844-32.723l28.25-103.6c3.6406-13.348 0.84375-27.629-7.5469-38.625-8.4062-10.996-21.445-17.449-35.281-17.449h-290.97l-8.0547-24.152c-4.0391-12.09-15.344-20.246-28.086-20.246h-18.93c-8.168 0-14.801 6.6328-14.801 14.801s6.6328 14.801 14.801 14.801h18.93z" fill-rule="evenodd"/>
</svg>